<?xml version="1.0" encoding="UTF-8"?>
<svg id="uuid-690635b0-6e39-47f6-9ce3-4cdc696208b7" data-name="Слой 1" xmlns="http://www.w3.org/2000/svg" viewBox="0 0 151.96 152.8">
  <path d="m144.6,42.77C132.14,17.46,106.08,0,76,0S19.86,17.46,7.4,42.77c-1.02,2.07.47,4.51,2.78,4.51h.19c1.19,0,2.27-.69,2.8-1.77C24.6,22.35,48.47,6.38,76,6.38s51.41,15.97,62.84,39.13c.53,1.07,1.61,1.77,2.8,1.77h.18c2.31,0,3.8-2.44,2.78-4.51ZM14.86,110.54c.69,1.27,1.45,2.5,2.23,3.71-.78-1.21-1.52-2.45-2.23-3.71Zm-11.48-10.3c.53,1.67,1.14,3.31,1.81,4.91-.65-1.62-1.25-3.25-1.81-4.91Zm1.81,4.91c.43,1.07.89,2.14,1.38,3.18-.48-1.04-.95-2.11-1.38-3.18Zm2.13,4.74c.76,1.56,1.56,3.08,2.44,4.58-.86-1.5-1.67-3.02-2.44-4.58Z" fill="#fff"/>
  <path d="m151.94,84.62c-4.12,38.28-36.62,68.18-75.97,68.18-12.51,0-24.33-3.02-34.76-8.37-1.1-.55-2.18-1.15-3.24-1.77-.54-.31-1.06-.63-1.6-.95-2-1.21-3.95-2.52-5.82-3.91-.15-.12-.31-.22-.46-.34-.91-.69-1.81-1.39-2.69-2.12-.47-.39-.95-.8-1.41-1.2-.47-.4-.93-.81-1.37-1.22-.37-.33-.73-.67-1.1-1.01-.3-.29-.6-.56-.88-.85-.51-.5-1.02-1.01-1.52-1.53-.35-.35-.69-.71-1.02-1.07-.9-.97-1.79-1.96-2.64-2.98-.3-.36-.6-.71-.89-1.08-.73-.89-1.45-1.81-2.13-2.75-.33-.45-.65-.89-.97-1.35-.33-.47-.66-.94-.98-1.41-.48-.72-.95-1.45-1.4-2.17-.45-.73-.89-1.47-1.33-2.21-.86-1.5-1.67-3.02-2.44-4.58-.24-.51-.5-1.03-.74-1.56-.48-1.04-.95-2.11-1.38-3.18-.65-1.62-1.25-3.25-1.81-4.91-.4-1.23-.78-2.48-1.12-3.73l-.03-.13c-.17-.62-.33-1.23-.48-1.85l-.03-.14c-.13-.53-.25-1.06-.37-1.6-.02-.1-.04-.19-.06-.29-.55-2.57-.98-5.2-1.27-7.86-.16-1.52.61-2.58,1.66-3.08,1.7-.82,4.13-.18,4.51,2.27.39,2.52.77,5.61,1.76,9.13,1.28,5.27,3.16,10.31,5.55,15.04.43.86.88,1.7,1.36,2.54.69,1.27,1.45,2.5,2.23,3.71.26.4.51.8.79,1.19.25.4.53.8.82,1.19.27.39.54.78.84,1.16.28.39.56.78.86,1.15.28.36.55.72.84,1.09,2.78,3.48,5.87,6.68,9.25,9.57.34.3.69.6,1.04.87.37.31.73.61,1.11.89.37.3.74.6,1.13.87.37.29.76.57,1.15.85.38.29.77.56,1.16.83,1.21.84,2.45,1.64,3.71,2.41.36.22.73.45,1.11.65,1.24.72,2.5,1.4,3.79,2.05.43.22.85.44,1.29.63,9.11,4.33,19.27,6.75,30,6.75,32.91,0,60.61-22.84,68.06-53.49.99-3.53,1.35-6.61,1.75-9.13.38-2.47,2.84-3.1,4.53-2.26,1.04.51,1.8,1.56,1.63,3.07Z" fill="#fff"/>
  <path d="m151.75,60.68c0,.79-.18,1.54-.52,2.2-.23.47-.55.9-.92,1.27-.36.35-.76.66-1.19.9-.68.33-1.45.54-2.28.54h-2.37c-.29.05-.43.64-.43,1.02-.19,18.48-9.42,29.46-28.77,29.46-2.01,0-4.14-.12-6.36-.36-19.64-2.11-20.75-28.99-32.88-29.03h-.03c-12.13.04-13.26,26.92-32.9,29.03-2.23.24-4.35.36-6.36.36-19.34,0-28.56-10.99-28.77-29.46,0-.38-.15-.97-.43-1.02h-2.38c-.8,0-1.56-.21-2.28-.54-.43-.24-.83-.55-1.18-.9-.37-.36-.68-.78-.91-1.24-.35-.67-.54-1.43-.54-2.22,0-1.54.74-2.95,1.89-3.83.76-.6,1.69-.97,2.71-1.03.1-.03.19-.03.31-.03h141.69c.12,0,.21,0,.31.03,1.03.06,1.98.45,2.74,1.06,1.13.88,1.86,2.27,1.86,3.8Z" fill="#fff"/>
</svg>